<svg width="13" height="10" viewBox="0 0 13 10" fill="none" xmlns="http://www.w3.org/2000/svg">
<path d="M6.65872 4.46892L10.9805 0.220245C11.2792 -0.0734136 11.7623 -0.0734136 12.0578 0.220245L12.776 0.926274C13.0747 1.21993 13.0747 1.69478 12.776 1.98532L9.71258 4.99688L12.776 8.00844C13.0747 8.30209 13.0747 8.77694 12.776 9.06748L12.061 9.77976C11.7623 10.0734 11.2792 10.0734 10.9837 9.77976L6.6619 5.53108C6.36001 5.23743 6.36001 4.76257 6.65872 4.46892V4.46892ZM0.557369 5.53109L4.87916 9.77976C5.17787 10.0734 5.6609 10.0734 5.95643 9.77976L6.67461 9.07373C6.97332 8.78007 6.97332 8.30522 6.67461 8.01468L3.61122 5.00313L6.67461 1.99157C6.97332 1.69791 6.97332 1.22306 6.67461 0.932522L5.95643 0.226494C5.65772 -0.0671647 5.1747 -0.0671646 4.87916 0.226494L0.557369 4.47517C0.258657 4.76258 0.258657 5.23743 0.557369 5.53109Z" fill="black"/>
</svg>
