<svg width="13" height="10" viewBox="0 0 13 10" fill="none" xmlns="http://www.w3.org/2000/svg">
<path d="M6.34128 5.53108L2.01949 9.77976C1.72077 10.0734 1.23775 10.0734 0.942215 9.77976L0.224034 9.07373C-0.074678 8.78007 -0.074678 8.30522 0.224034 8.01468L3.28742 5.00312L0.224034 1.99157C-0.074678 1.69791 -0.074678 1.22306 0.224034 0.932521L0.939037 0.220244C1.23775 -0.0734145 1.72077 -0.0734145 2.01631 0.220244L6.3381 4.46892C6.63999 4.76257 6.63999 5.23743 6.34128 5.53108ZM12.4426 4.46892L8.12084 0.220244C7.82213 -0.0734145 7.3391 -0.0734145 7.04357 0.220244L6.32539 0.926273C6.02668 1.21993 6.02668 1.69478 6.32539 1.98532L9.38878 4.99688L6.32539 8.00843C6.02668 8.30209 6.02668 8.77694 6.32539 9.06748L7.04357 9.77351C7.34228 10.0672 7.82531 10.0672 8.12084 9.77351L12.4426 5.52484C12.7413 5.23743 12.7413 4.76257 12.4426 4.46892Z" fill="black"/>
</svg>
