<svg width="17" height="14" viewBox="0 0 17 14" fill="none" xmlns="http://www.w3.org/2000/svg">
<path d="M8.27461 3.63197L2.83356 8.37781V13.4999C2.83356 13.6326 2.88331 13.7598 2.97186 13.8535C3.06041 13.9473 3.18051 14 3.30574 14L6.61281 13.9909C6.73764 13.9903 6.85713 13.9373 6.94518 13.8436C7.03322 13.7499 7.08264 13.6231 7.08264 13.4909V10.4996C7.08264 10.367 7.13239 10.2398 7.22094 10.146C7.30949 10.0522 7.42959 9.99955 7.55483 9.99955H9.44357C9.5688 9.99955 9.6889 10.0522 9.77745 10.146C9.86601 10.2398 9.91576 10.367 9.91576 10.4996V13.4887C9.91556 13.5545 9.92763 13.6197 9.95127 13.6805C9.97492 13.7414 10.0097 13.7967 10.0535 13.8433C10.0974 13.8899 10.1495 13.9269 10.2069 13.9521C10.2643 13.9773 10.3258 13.9903 10.3879 13.9903L13.6938 14C13.8191 14 13.9392 13.9473 14.0277 13.8535C14.1163 13.7598 14.166 13.6326 14.166 13.4999V8.37437L8.72614 3.63197C8.66219 3.57738 8.58252 3.54761 8.50038 3.54761C8.41823 3.54761 8.33857 3.57738 8.27461 3.63197ZM16.8693 6.85764L14.4021 4.70396V0.375042C14.4021 0.275575 14.3648 0.180181 14.2984 0.109847C14.232 0.0395133 14.1419 0 14.048 0H12.3953C12.3014 0 12.2113 0.0395133 12.1449 0.109847C12.0785 0.180181 12.0412 0.275575 12.0412 0.375042V2.64436L9.39901 0.342226C9.14545 0.121257 8.82727 0.00044172 8.4989 0.00044172C8.17053 0.00044172 7.85236 0.121257 7.5988 0.342226L0.128523 6.85764C0.0926624 6.88903 0.0629937 6.92759 0.0412118 6.97113C0.0194298 7.01467 0.00596157 7.06232 0.00157656 7.11137C-0.00280846 7.16042 0.0019757 7.20991 0.0156557 7.257C0.0293357 7.30409 0.0516433 7.34787 0.0813041 7.38582L0.83385 8.35468C0.86343 8.39277 0.899814 8.42431 0.940918 8.44749C0.982022 8.47067 1.02704 8.48504 1.07339 8.48977C1.11975 8.4945 1.16653 8.48951 1.21106 8.47507C1.25558 8.46063 1.29699 8.43703 1.33289 8.40563L8.27461 2.35057C8.33857 2.29598 8.41823 2.26621 8.50038 2.26621C8.58252 2.26621 8.66219 2.29598 8.72614 2.35057L15.6682 8.40563C15.704 8.43704 15.7453 8.46066 15.7898 8.47515C15.8343 8.48964 15.881 8.4947 15.9273 8.49006C15.9736 8.48542 16.0186 8.47115 16.0597 8.44808C16.1009 8.42502 16.1373 8.3936 16.1669 8.35562L16.9195 7.38676C16.9491 7.34858 16.9713 7.30458 16.9848 7.25728C16.9983 7.20999 17.0029 7.16033 16.9982 7.11116C16.9936 7.06199 16.9798 7.01428 16.9576 6.97077C16.9355 6.92726 16.9055 6.88882 16.8693 6.85764Z" fill="black"/>
</svg>
