<?xml version="1.0" encoding="utf-8"?>
<!-- Generator: Adobe Illustrator 25.3.1, SVG Export Plug-In . SVG Version: 6.00 Build 0)  -->
<svg version="1.1" id="Layer_1" xmlns="http://www.w3.org/2000/svg" xmlns:xlink="http://www.w3.org/1999/xlink" x="0px" y="0px"
	 viewBox="0 0 24 24" style="enable-background:new 0 0 24 24;" xml:space="preserve">
<style type="text/css">
	.st0{fill:#FFCC33;}
</style>
<path class="st0" d="M22.9,20.1l-4.4-4.4c-0.2-0.2-0.5-0.3-0.7-0.3h-0.7C18.3,13.9,19,12,19,9.9c0-5-4.1-9.1-9.1-9.1
	c-5,0-9.1,4.1-9.1,9.1c0,5,4.1,9.1,9.1,9.1c2.1,0,4-0.7,5.6-1.9v0.7c0,0.3,0.1,0.5,0.3,0.7l4.4,4.4c0.4,0.4,1.1,0.4,1.5,0l1.2-1.2
	C23.3,21.2,23.3,20.6,22.9,20.1z M9.9,15.5c-3.1,0-5.6-2.5-5.6-5.6c0-3.1,2.5-5.6,5.6-5.6c3.1,0,5.6,2.5,5.6,5.6
	C15.5,13,13,15.5,9.9,15.5z"/>
</svg>
