<svg width="60" height="60" viewBox="0 0 60 60" fill="none" xmlns="http://www.w3.org/2000/svg">
<circle cx="30" cy="30" r="29.5" fill="white" stroke="#555555"/>
<path d="M24.9969 36.326C25.1556 36.326 25.3002 36.34 25.4309 36.368C25.5616 36.396 25.6689 36.4753 25.7529 36.606C25.8462 36.7273 25.8929 36.942 25.8929 37.25C25.8929 37.5393 25.8462 37.7493 25.7529 37.88C25.6689 38.0107 25.5569 38.09 25.4169 38.118C25.2769 38.146 25.1276 38.16 24.9689 38.16H22.7149V45.09C22.7149 45.2673 22.6962 45.4353 22.6589 45.594C22.6309 45.7527 22.5422 45.8833 22.3929 45.986C22.2529 46.0793 22.0102 46.126 21.6649 46.126C21.3289 46.126 21.0862 46.0793 20.9369 45.986C20.7876 45.8833 20.6989 45.7527 20.6709 45.594C20.6429 45.426 20.6289 45.2533 20.6289 45.076V38.16H18.3469C18.1976 38.16 18.0529 38.146 17.9129 38.118C17.7729 38.0807 17.6609 38.0013 17.5769 37.88C17.4929 37.7493 17.4509 37.5347 17.4509 37.236C17.4509 36.9373 17.4929 36.7273 17.5769 36.606C17.6609 36.4753 17.7729 36.396 17.9129 36.368C18.0529 36.34 18.1976 36.326 18.3469 36.326H24.9969ZM30.511 46.266C29.839 46.266 29.2044 46.14 28.607 45.888C28.019 45.6267 27.501 45.272 27.053 44.824C26.6144 44.3667 26.2644 43.8393 26.003 43.242C25.751 42.6447 25.625 42.0007 25.625 41.31C25.625 40.61 25.7464 39.9567 25.989 39.35C26.241 38.734 26.5817 38.1927 27.011 37.726C27.4497 37.2593 27.9584 36.8953 28.537 36.634C29.1157 36.3727 29.7364 36.242 30.399 36.242C31.071 36.242 31.701 36.3727 32.289 36.634C32.8864 36.886 33.4044 37.2407 33.843 37.698C34.2817 38.1553 34.627 38.6873 34.879 39.294C35.1404 39.9007 35.271 40.5587 35.271 41.268C35.271 41.9493 35.145 42.5933 34.893 43.2C34.6504 43.7973 34.3097 44.3293 33.871 44.796C33.4324 45.2533 32.9237 45.6127 32.345 45.874C31.7757 46.1353 31.1644 46.266 30.511 46.266ZM30.441 44.138C30.8144 44.138 31.1644 44.0633 31.491 43.914C31.8177 43.7647 32.1024 43.564 32.345 43.312C32.597 43.0507 32.7884 42.7473 32.919 42.402C33.059 42.0473 33.129 41.6647 33.129 41.254C33.129 40.862 33.059 40.4933 32.919 40.148C32.779 39.7933 32.583 39.4853 32.331 39.224C32.0884 38.9533 31.8037 38.7433 31.477 38.594C31.1597 38.4447 30.8144 38.37 30.441 38.37C30.077 38.37 29.7317 38.4447 29.405 38.594C29.0877 38.7433 28.803 38.9533 28.551 39.224C28.3084 39.4853 28.1124 39.7933 27.963 40.148C27.823 40.4933 27.753 40.8667 27.753 41.268C27.753 41.66 27.823 42.0333 27.963 42.388C28.1124 42.7333 28.3084 43.0367 28.551 43.298C28.803 43.5593 29.0877 43.7647 29.405 43.914C29.7224 44.0633 30.0677 44.138 30.441 44.138ZM37.2256 46.126C36.8802 46.126 36.6329 46.0747 36.4836 45.972C36.3436 45.8693 36.2549 45.734 36.2176 45.566C36.1802 45.398 36.1616 45.2253 36.1616 45.048V37.404C36.1616 37.2267 36.1802 37.0587 36.2176 36.9C36.2549 36.732 36.3482 36.5967 36.4976 36.494C36.6469 36.3913 36.8942 36.34 37.2396 36.34H40.1096C40.5016 36.34 40.8936 36.41 41.2856 36.55C41.6869 36.69 42.0556 36.9093 42.3916 37.208C42.7369 37.4973 43.0122 37.8567 43.2176 38.286C43.4322 38.7153 43.5396 39.2193 43.5396 39.798C43.5396 40.3673 43.4322 40.8667 43.2176 41.296C43.0122 41.7253 42.7369 42.0847 42.3916 42.374C42.0556 42.654 41.6869 42.8687 41.2856 43.018C40.8842 43.158 40.4876 43.228 40.0956 43.228H38.3036V45.062C38.3036 45.2393 38.2849 45.412 38.2476 45.58C38.2102 45.7387 38.1169 45.8693 37.9676 45.972C37.8182 46.0747 37.5709 46.126 37.2256 46.126ZM38.3036 41.1H40.1096C40.3149 41.1 40.5156 41.058 40.7116 40.974C40.9169 40.8807 41.0849 40.736 41.2156 40.54C41.3556 40.344 41.4256 40.092 41.4256 39.784C41.4256 39.5227 41.3696 39.294 41.2576 39.098C41.1456 38.902 40.9869 38.748 40.7816 38.636C40.5856 38.524 40.3569 38.468 40.0956 38.468H38.3036V41.1Z" fill="#555555"/>
<path d="M30.645 20.7192L37.2856 27.3599C37.7446 27.8188 37.7446 28.561 37.2856 29.0151L36.1821 30.1187C35.7231 30.5776 34.981 30.5776 34.5269 30.1187L29.8149 25.4165L25.1079 30.1235C24.6489 30.5825 23.9067 30.5825 23.4526 30.1235L22.3442 29.02C21.8853 28.561 21.8853 27.8188 22.3442 27.3647L28.9849 20.7241C29.4438 20.2603 30.186 20.2603 30.645 20.7192ZM28.9849 11.3442L22.3442 17.9849C21.8853 18.4438 21.8853 19.186 22.3442 19.6401L23.4478 20.7437C23.9067 21.2026 24.6489 21.2026 25.103 20.7437L29.8101 16.0366L34.5171 20.7437C34.9761 21.2026 35.7183 21.2026 36.1724 20.7437L37.2759 19.6401C37.7349 19.1812 37.7349 18.439 37.2759 17.9849L30.6353 11.3442C30.186 10.8853 29.4438 10.8853 28.9849 11.3442Z" fill="#555555"/>
</svg>
