<svg width="143" height="143" viewBox="0 0 143 143" fill="none" xmlns="http://www.w3.org/2000/svg">
<path d="M45.405 84.9553C45.405 99.2909 57.0263 110.912 71.3618 110.912C85.6974 110.912 97.3186 99.2909 97.3186 84.9553V52.7391C97.3186 38.4035 85.6974 26.7823 71.3618 26.7823C57.0263 26.7823 45.405 38.4035 45.405 52.7391V84.9553Z" stroke="white" stroke-width="3" stroke-linecap="round" stroke-linejoin="round"/>
<path d="M68.0867 81.3561C66.2781 83.1647 66.2781 86.097 68.0867 87.9057C69.8954 89.7143 72.8277 89.7143 74.6363 87.9057C76.445 86.097 76.445 83.1647 74.6363 81.3561C72.8277 79.5474 69.8954 79.5474 68.0867 81.3561Z" stroke="white" stroke-width="3" stroke-linecap="round" stroke-linejoin="round"/>
<path d="M62.3204 120.324C65.1647 121.522 68.2185 122.142 71.3046 122.15C74.3906 122.157 77.4475 121.552 80.2977 120.369M58.6175 129.502C62.657 131.18 66.9879 132.043 71.3619 132.043C75.7358 132.043 80.0668 131.18 84.1063 129.502" stroke="white" stroke-width="3" stroke-linecap="round" stroke-linejoin="round"/>
</svg>
