<?xml version="1.0" encoding="utf-8"?>
<!-- Generator: Adobe Illustrator 23.1.0, SVG Export Plug-In . SVG Version: 6.00 Build 0)  -->
<svg version="1.1" id="Layer_1" xmlns="http://www.w3.org/2000/svg" xmlns:xlink="http://www.w3.org/1999/xlink" x="0px" y="0px"
	 viewBox="0 0 43.21 43.18" style="enable-background:new 0 0 43.21 43.18;" xml:space="preserve">
<g>
	<path d="M21.75,0.17c6.41-0.58,11.03,2.2,15.21,6.26c4.53,4.41,6.1,9.69,6.25,15.93c0.23,9.93-9.15,20.71-21.58,20.82
		c-6.1,0.05-11.25-2.51-15.2-6.51C2.48,32.68,0.01,27.52,0,21.41c-0.01-3.65,1.23-6.93,2.56-9.96C4.01,8.14,6.62,5.07,9.9,3.21
		C13.6,1.11,17.6-0.55,21.75,0.17z M21.78,39.14c9.8,0.75,18.08-7.14,18.13-17.29c0.05-10.44-7.66-18.19-18.3-18.6
		C13.75,2.94,4.1,9.98,3.91,20.76C3.74,30.81,12.68,40.41,21.78,39.14z"/>
	<path d="M17.61,19.14c5.3,0,9.91,0.08,14.52-0.05c1.38-0.04,2.23,0.52,2.87,1.48c0.73,1.1-0.18,2.55-1.54,2.56
		c-4.65,0.02-9.29,0-13.94,0.03c-0.44,0-1.27,0.29-1.26,0.39c0.04,0.58,0.14,1.27,0.49,1.68c0.97,1.13,1.91,2.46,3.18,3.12
		c2.17,1.13-0.18,2.14,0.18,3.14c-0.53,0.19-1.32,0.7-1.55,0.51c-2.2-1.79-4.39-3.63-6.42-5.61c-1.25-1.22-2.17-2.78-3.37-4.05
		c-0.89-0.94-0.83-1.57,0.06-2.44c2.74-2.66,5.43-5.36,8.1-8.09c0.98-1,1.98-0.93,3.06-0.29c1.26,0.75,1.46,1.73,0.49,2.74
		C21.1,15.7,19.66,17.08,17.61,19.14z"/>
</g>
</svg>
