<svg width="20" height="24" viewBox="0 0 20 24" fill="none" xmlns="http://www.w3.org/2000/svg">
<path d="M6.01659 14.5636C6.12992 14.5636 6.23325 14.5736 6.32659 14.5936C6.41992 14.6136 6.49659 14.6703 6.55659 14.7636C6.62325 14.8503 6.65659 15.0036 6.65659 15.2236C6.65659 15.4303 6.62325 15.5803 6.55659 15.6736C6.49659 15.767 6.41659 15.8236 6.31659 15.8436C6.21659 15.8636 6.10992 15.8736 5.99659 15.8736H4.38659V20.8236C4.38659 20.9503 4.37325 21.0703 4.34659 21.1836C4.32659 21.297 4.26325 21.3903 4.15659 21.4636C4.05659 21.5303 3.88325 21.5636 3.63659 21.5636C3.39659 21.5636 3.22325 21.5303 3.11659 21.4636C3.00992 21.3903 2.94659 21.297 2.92659 21.1836C2.90659 21.0636 2.89659 20.9403 2.89659 20.8136V15.8736H1.26659C1.15992 15.8736 1.05659 15.8636 0.956587 15.8436C0.856587 15.817 0.776587 15.7603 0.716587 15.6736C0.656587 15.5803 0.626587 15.427 0.626587 15.2136C0.626587 15.0003 0.656587 14.8503 0.716587 14.7636C0.776587 14.6703 0.856587 14.6136 0.956587 14.5936C1.05659 14.5736 1.15992 14.5636 1.26659 14.5636H6.01659ZM9.95526 21.6636C9.47526 21.6636 9.02193 21.5736 8.59526 21.3936C8.17526 21.207 7.80526 20.9536 7.48526 20.6336C7.17193 20.307 6.92193 19.9303 6.73526 19.5036C6.55526 19.077 6.46526 18.617 6.46526 18.1236C6.46526 17.6236 6.55193 17.157 6.72526 16.7236C6.90526 16.2836 7.14859 15.897 7.45526 15.5636C7.76859 15.2303 8.13193 14.9703 8.54526 14.7836C8.95859 14.597 9.40193 14.5036 9.87526 14.5036C10.3553 14.5036 10.8053 14.597 11.2253 14.7836C11.6519 14.9636 12.0219 15.217 12.3353 15.5436C12.6486 15.8703 12.8953 16.2503 13.0753 16.6836C13.2619 17.117 13.3553 17.587 13.3553 18.0936C13.3553 18.5803 13.2653 19.0403 13.0853 19.4736C12.9119 19.9003 12.6686 20.2803 12.3553 20.6136C12.0419 20.9403 11.6786 21.197 11.2653 21.3836C10.8586 21.5703 10.4219 21.6636 9.95526 21.6636ZM9.90526 20.1436C10.1719 20.1436 10.4219 20.0903 10.6553 19.9836C10.8886 19.877 11.0919 19.7336 11.2653 19.5536C11.4453 19.367 11.5819 19.1503 11.6753 18.9036C11.7753 18.6503 11.8253 18.377 11.8253 18.0836C11.8253 17.8036 11.7753 17.5403 11.6753 17.2936C11.5753 17.0403 11.4353 16.8203 11.2553 16.6336C11.0819 16.4403 10.8786 16.2903 10.6453 16.1836C10.4186 16.077 10.1719 16.0236 9.90526 16.0236C9.64526 16.0236 9.39859 16.077 9.16526 16.1836C8.93859 16.2903 8.73526 16.4403 8.55526 16.6336C8.38193 16.8203 8.24193 17.0403 8.13526 17.2936C8.03526 17.5403 7.98526 17.807 7.98526 18.0936C7.98526 18.3736 8.03526 18.6403 8.13526 18.8936C8.24193 19.1403 8.38193 19.357 8.55526 19.5436C8.73526 19.7303 8.93859 19.877 9.16526 19.9836C9.39193 20.0903 9.63859 20.1436 9.90526 20.1436ZM14.7514 21.5636C14.5047 21.5636 14.328 21.527 14.2214 21.4536C14.1214 21.3803 14.058 21.2836 14.0314 21.1636C14.0047 21.0436 13.9914 20.9203 13.9914 20.7936V15.3336C13.9914 15.207 14.0047 15.087 14.0314 14.9736C14.058 14.8536 14.1247 14.757 14.2314 14.6836C14.338 14.6103 14.5147 14.5736 14.7614 14.5736H16.8114C17.0914 14.5736 17.3714 14.6236 17.6514 14.7236C17.938 14.8236 18.2014 14.9803 18.4414 15.1936C18.688 15.4003 18.8847 15.657 19.0314 15.9636C19.1847 16.2703 19.2614 16.6303 19.2614 17.0436C19.2614 17.4503 19.1847 17.807 19.0314 18.1136C18.8847 18.4203 18.688 18.677 18.4414 18.8836C18.2014 19.0836 17.938 19.237 17.6514 19.3436C17.3647 19.4436 17.0814 19.4936 16.8014 19.4936H15.5214V20.8036C15.5214 20.9303 15.508 21.0536 15.4814 21.1736C15.4547 21.287 15.388 21.3803 15.2814 21.4536C15.1747 21.527 14.998 21.5636 14.7514 21.5636ZM15.5214 17.9736H16.8114C16.958 17.9736 17.1014 17.9436 17.2414 17.8836C17.388 17.817 17.508 17.7136 17.6014 17.5736C17.7014 17.4336 17.7514 17.2536 17.7514 17.0336C17.7514 16.847 17.7114 16.6836 17.6314 16.5436C17.5514 16.4036 17.438 16.2936 17.2914 16.2136C17.1514 16.1336 16.988 16.0936 16.8014 16.0936H15.5214V17.9736Z" fill="#555555"/>
<path d="M10.4407 4.99248L13.8518 8.40356C14.0875 8.63933 14.0875 9.02057 13.8518 9.25382L13.2849 9.82067C13.0492 10.0564 12.6679 10.0564 12.4347 9.82067L10.0143 7.40532L7.59644 9.82318C7.36067 10.0589 6.97943 10.0589 6.74617 9.82318L6.17682 9.25633C5.94106 9.02057 5.94106 8.63933 6.17682 8.40607L9.58791 4.99498C9.82368 4.75671 10.2049 4.75671 10.4407 4.99248ZM9.58791 0.176825L6.17682 3.58791C5.94106 3.82368 5.94106 4.20492 6.17682 4.43817L6.74367 5.00502C6.97943 5.24078 7.36067 5.24078 7.59393 5.00502L10.0118 2.58716L12.4296 5.00502C12.6654 5.24078 13.0467 5.24078 13.2799 5.00502L13.8468 4.43817C14.0825 4.20241 14.0825 3.82117 13.8468 3.58791L10.4357 0.176825C10.2049 -0.0589416 9.82368 -0.0589416 9.58791 0.176825Z" fill="#555555"/>
</svg>
