<?xml version="1.0" encoding="utf-8"?>
<!-- Generator: Adobe Illustrator 23.1.0, SVG Export Plug-In . SVG Version: 6.00 Build 0)  -->
<svg version="1.1" id="Layer_1" xmlns="http://www.w3.org/2000/svg" xmlns:xlink="http://www.w3.org/1999/xlink" x="0px" y="0px"
	 viewBox="0 0 43.21 43.18" style="enable-background:new 0 0 43.21 43.18;" xml:space="preserve">
<g>
	<path d="M21.46,43.01c-6.41,0.58-11.03-2.2-15.21-6.26C1.72,32.33,0.15,27.05,0,20.82C-0.23,10.89,9.16,0.1,21.58,0
		c6.1-0.05,11.25,2.51,15.2,6.51c3.95,3.99,6.42,9.15,6.43,15.26c0.01,3.65-1.23,6.93-2.56,9.96c-1.45,3.31-4.06,6.38-7.34,8.24
		C29.61,42.07,25.61,43.73,21.46,43.01z M21.43,4.04c-9.8-0.75-18.08,7.14-18.13,17.29c-0.05,10.44,7.66,18.19,18.3,18.6
		c7.85,0.3,17.5-6.74,17.69-17.52C39.47,12.37,30.53,2.76,21.43,4.04z"/>
	<path d="M25.6,24.04c-5.3,0-9.91-0.08-14.52,0.05c-1.38,0.04-2.23-0.52-2.87-1.48c-0.73-1.1,0.18-2.55,1.54-2.56
		c4.65-0.02,9.29,0,13.94-0.03c0.44,0,1.27-0.29,1.26-0.39c-0.04-0.58-0.14-1.27-0.49-1.68c-0.97-1.13-1.91-2.46-3.18-3.12
		c-2.17-1.13,0.18-2.14-0.18-3.14c0.53-0.19,1.32-0.7,1.55-0.51c2.2,1.79,4.39,3.63,6.42,5.61c1.25,1.22,2.17,2.78,3.37,4.05
		c0.89,0.94,0.83,1.57-0.06,2.44c-2.74,2.66-5.43,5.36-8.1,8.09c-0.98,1-1.98,0.93-3.06,0.29c-1.26-0.75-1.46-1.73-0.49-2.74
		C22.11,27.48,23.55,26.1,25.6,24.04z"/>
</g>
</svg>
