<svg width="50" height="40" viewBox="0 0 50 40" fill="none" xmlns="http://www.w3.org/2000/svg">
<path d="M24.8719 17.8757L41.8666 0.880975C43.0412 -0.293658 44.9407 -0.293658 46.1028 0.880975L48.9269 3.70509C50.1015 4.87972 50.1015 6.77913 48.9269 7.94127L36.8932 20L48.9394 32.0462C50.114 33.2209 50.114 35.1203 48.9394 36.2824L46.1153 39.119C44.9407 40.2937 43.0412 40.2937 41.8791 39.119L24.8844 22.1243C23.6973 20.9497 23.6973 19.0503 24.8719 17.8757V17.8757ZM0.879419 22.1243L17.8741 39.119C19.0487 40.2937 20.9481 40.2937 22.1103 39.119L24.9344 36.2949C26.109 35.1203 26.109 33.2209 24.9344 32.0587L12.9007 20L24.9469 7.95376C26.1215 6.77913 26.1215 4.87972 24.9469 3.71759L22.1228 0.880975C20.9481 -0.293658 19.0487 -0.293658 17.8866 0.880975L0.891915 17.8757C-0.295214 19.0503 -0.295214 20.9497 0.879419 22.1243V22.1243Z" fill="black"/>
</svg>
