<svg width="21" height="28" viewBox="0 0 21 28" fill="none" xmlns="http://www.w3.org/2000/svg">
<path d="M10.4981 8.75C12.9152 8.75 14.8731 6.79219 14.8731 4.375C14.8731 1.95781 12.9152 0 10.4981 0C8.08087 0 6.12305 1.95781 6.12305 4.375C6.12305 6.79219 8.08087 8.75 10.4981 8.75ZM7.57774 22.3562L8.97774 20.6062L5.61446 17.8062L3.1043 20.9453C2.48087 21.7219 2.46446 22.8266 3.06055 23.625L5.68555 27.125C6.11759 27.6992 6.77384 28 7.43555 28C7.88946 28 8.3543 27.8578 8.74805 27.5625C9.71602 26.8406 9.90743 25.468 9.18555 24.5L7.57774 22.3562ZM15.3816 17.8062L12.0184 20.6062L13.4184 22.3562L11.8106 24.5C11.0887 25.468 11.2801 26.8406 12.2481 27.5625C12.6418 27.8578 13.1012 28 13.5606 28C14.2277 28 14.884 27.6992 15.3106 27.125L17.9356 23.625C18.5316 22.8266 18.5152 21.7219 17.8918 20.9453L15.3816 17.8062ZM20.5988 7.92969C19.9043 6.93984 18.5426 6.70469 17.5527 7.39375L15.3324 8.95234C12.4504 10.9758 8.54024 10.9758 5.66368 8.95234L3.44337 7.39922C2.45352 6.70469 1.0918 6.94531 0.397273 7.92969C-0.297258 8.91953 -0.0566334 10.2813 0.927742 10.9758L3.14805 12.5344C4.07774 13.1852 5.08399 13.6773 6.12305 14.0602V15.75H14.8731V14.0656C15.9121 13.6828 16.9184 13.1906 17.8481 12.5398L20.0684 10.9812C21.0582 10.2812 21.2934 8.91953 20.5988 7.92969Z" fill="#FFDB80"/>
</svg>
