<svg width="28" height="26" viewBox="0 0 28 26" fill="none" xmlns="http://www.w3.org/2000/svg">
<path d="M22.75 3.375C22.75 2.67881 23.0266 2.01113 23.5188 1.51884C24.0111 1.02656 24.6788 0.75 25.375 0.75C26.0712 0.75 26.7389 1.02656 27.2312 1.51884C27.7234 2.01113 28 2.67881 28 3.375V22.625C28 23.3212 27.7234 23.9889 27.2312 24.4812C26.7389 24.9734 26.0712 25.25 25.375 25.25C24.6788 25.25 24.0111 24.9734 23.5188 24.4812C23.0266 23.9889 22.75 23.3212 22.75 22.625V22.2505C18.9665 20.0787 14.8925 19.0252 10.654 18.6052L11.3628 23.3512C11.4103 23.6041 11.4016 23.8643 11.3372 24.1134C11.2727 24.3625 11.1541 24.5943 10.9899 24.7923C10.8256 24.9903 10.6197 25.1497 10.3868 25.259C10.1539 25.3684 9.89978 25.4251 9.6425 25.425H8.6835C8.34334 25.425 8.01056 25.3258 7.72586 25.1396C7.44117 24.9535 7.2169 24.6884 7.0805 24.3768L3.843 18.2692C3.72517 18.2673 3.60734 18.2656 3.4895 18.264C2.56264 18.2548 1.67671 17.8808 1.02358 17.2231C0.370458 16.5654 0.00271573 15.6769 0 14.75L0 11.25C0.00312337 10.323 0.370247 9.43434 1.02229 8.77543C1.67432 8.11652 2.55909 7.74009 3.486 7.72725C4.93504 7.7076 6.38366 7.66384 7.83125 7.596C13.1565 7.3265 18.5903 6.11025 22.75 3.74775V3.375ZM24.5 3.375V22.625C24.5 22.8571 24.5922 23.0796 24.7563 23.2437C24.9204 23.4078 25.1429 23.5 25.375 23.5C25.6071 23.5 25.8296 23.4078 25.9937 23.2437C26.1578 23.0796 26.25 22.8571 26.25 22.625V3.375C26.25 3.14294 26.1578 2.92038 25.9937 2.75628C25.8296 2.59219 25.6071 2.5 25.375 2.5C25.1429 2.5 24.9204 2.59219 24.7563 2.75628C24.5922 2.92038 24.5 3.14294 24.5 3.375ZM22.75 5.7375C18.648 7.84625 13.6342 8.961 8.75 9.29525V16.703C9.065 16.7205 9.37825 16.7415 9.68975 16.766C14.1838 17.0968 18.6025 18.068 22.75 20.2537V5.7375ZM7 16.6137V9.38625C5.83835 9.42876 4.67629 9.45909 3.514 9.47725C3.04635 9.48274 2.59954 9.67155 2.26965 10.0031C1.93977 10.3346 1.75318 10.7823 1.75 11.25V14.75C1.75 15.7125 2.534 16.5035 3.5105 16.5157C4.67413 16.5292 5.83745 16.5619 7 16.6137V16.6137ZM5.85025 18.32L8.666 23.6348L8.6835 23.6768H9.6425L9.639 23.6523L8.86375 18.4618C7.8599 18.4012 6.85532 18.3534 5.85025 18.3182V18.32Z" fill="black"/>
</svg>
