<svg width="25" height="28" viewBox="0 0 25 28" fill="none" xmlns="http://www.w3.org/2000/svg">
<path d="M6.12632 7C6.12632 5.38672 7.01226 3.99219 8.31382 3.23203V14H10.9388V2.625H13.5638V14H16.1888V3.23203C17.4904 3.99219 18.3763 5.38672 18.3763 7V14H21.0013V7C21.0013 3.13359 17.8677 0 14.0013 0H10.5013C6.63491 0 3.50132 3.13359 3.50132 7V14H6.12632V7ZM24.4083 18.6977L23.8232 16.9477C23.5826 16.2313 22.9154 15.75 22.1607 15.75H2.33648C1.58179 15.75 0.914602 16.2313 0.673977 16.9477L0.0888203 18.6977C-0.283055 19.8297 0.559133 21 1.75132 21V27.125C1.75132 27.6063 2.14507 28 2.62632 28H4.37632C4.85757 28 5.25132 27.6063 5.25132 27.125V21H19.2513V27.125C19.2513 27.6063 19.6451 28 20.1263 28H21.8763C22.3576 28 22.7513 27.6063 22.7513 27.125V21C23.9435 21 24.7857 19.8297 24.4083 18.6977Z" fill="#008E30"/>
</svg>
