<svg width="34" height="28" viewBox="0 0 34 28" fill="none" xmlns="http://www.w3.org/2000/svg">
<path d="M5.25 7C7.18047 7 8.75 5.43047 8.75 3.5C8.75 1.56953 7.18047 0 5.25 0C3.31953 0 1.75 1.56953 1.75 3.5C1.75 5.43047 3.31953 7 5.25 7ZM26.25 7C28.1805 7 29.75 5.43047 29.75 3.5C29.75 1.56953 28.1805 0 26.25 0C24.3195 0 22.75 1.56953 22.75 3.5C22.75 5.43047 24.3195 7 26.25 7ZM33.2117 19.3867L30.718 9.22578C30.5375 8.4875 29.8703 7.96797 29.0883 7.90234C28.268 8.43281 27.2945 8.75 26.2445 8.75C25.1945 8.75 24.2211 8.43281 23.4008 7.90234C22.6188 7.96797 21.9516 8.4875 21.7711 9.22578L19.2773 19.3867C19.0859 20.2125 19.7422 21 20.6281 21H23.625V26.6875C23.625 27.4148 24.2102 28 24.9375 28H27.5625C28.2898 28 28.875 27.4148 28.875 26.6875V21H31.8719C32.7578 21 33.4141 20.2125 33.2117 19.3867ZM16.625 0H14.875C14.3937 0 14 0.39375 14 0.875V27.125C14 27.6063 14.3937 28 14.875 28H16.625C17.1063 28 17.5 27.6063 17.5 27.125V0.875C17.5 0.39375 17.1063 0 16.625 0ZM8.09922 7.89687C7.27891 8.43281 6.3 8.75 5.25 8.75C4.2 8.75 3.22109 8.43281 2.40078 7.89687C1.05547 8.01172 0 9.12734 0 10.5V17.9375C0 18.6648 0.585156 19.25 1.3125 19.25H1.75V26.6875C1.75 27.4148 2.33516 28 3.0625 28H7.4375C8.16484 28 8.75 27.4148 8.75 26.6875V19.25H9.1875C9.91484 19.25 10.5 18.6648 10.5 17.9375V10.5C10.5 9.12734 9.44453 8.01172 8.09922 7.89687Z" fill="#FF7C7C"/>
</svg>
