<svg width="28" height="28" viewBox="0 0 28 28" fill="none" xmlns="http://www.w3.org/2000/svg">
<path d="M14 0C6.26856 0 0 6.27081 0 14C0 21.7337 6.26856 28 14 28C21.7314 28 28 21.7337 28 14C28 6.27081 21.7314 0 14 0ZM14 6.20968C15.3095 6.20968 16.371 7.27119 16.371 8.58064C16.371 9.8901 15.3095 10.9516 14 10.9516C12.6905 10.9516 11.629 9.8901 11.629 8.58064C11.629 7.27119 12.6905 6.20968 14 6.20968ZM17.1613 20.5484C17.1613 20.9225 16.858 21.2258 16.4839 21.2258H11.5161C11.142 21.2258 10.8387 20.9225 10.8387 20.5484V19.1935C10.8387 18.8194 11.142 18.5161 11.5161 18.5161H12.1935V14.9032H11.5161C11.142 14.9032 10.8387 14.5999 10.8387 14.2258V12.871C10.8387 12.4969 11.142 12.1935 11.5161 12.1935H15.129C15.5031 12.1935 15.8065 12.4969 15.8065 12.871V18.5161H16.4839C16.858 18.5161 17.1613 18.8194 17.1613 19.1935V20.5484Z" fill="#FF0000"/>
</svg>
