<svg width="28" height="28" viewBox="0 0 28 28" fill="none" xmlns="http://www.w3.org/2000/svg">
<path d="M26.7151 0.875H25.4845V1.267C23.7712 1.65025 23.5249 3.24056 23.4282 3.84825C23.3823 4.13569 23.2891 4.69788 23.1736 5.3865H1.74483C0.896954 5.3865 0.802017 6.17881 0.912704 6.61719L3.42658 17.7153C3.53683 18.1536 4.00102 18.5115 4.45602 18.5115H23.244C23.6964 18.5115 24.0652 18.8794 24.0652 19.3318C24.0652 19.7842 23.6964 20.1521 23.244 20.1521H2.73664C2.51908 20.1521 2.31043 20.2386 2.15659 20.3924C2.00276 20.5462 1.91633 20.7549 1.91633 20.9724C1.91633 21.19 2.00276 21.3986 2.15659 21.5525C2.31043 21.7063 2.51908 21.7928 2.73664 21.7928H3.79977C3.28645 22.0761 2.85852 22.492 2.56058 22.997C2.26264 23.502 2.10558 24.0777 2.10577 24.6641H2.92608C2.92608 26.0225 4.02858 27.125 5.38702 27.125C6.74545 27.125 7.84795 26.0225 7.84795 24.6641H8.66827C8.66837 24.0777 8.51122 23.502 8.2132 22.997C7.91519 22.492 7.4872 22.0761 6.97383 21.7928H18.565C18.0516 22.0761 17.6236 22.492 17.3256 22.997C17.0276 23.502 16.8704 24.0777 16.8705 24.6641H17.6908C17.703 25.3088 17.9677 25.9231 18.4279 26.3747C18.8882 26.8264 19.5073 27.0795 20.1522 27.0795C20.7971 27.0795 21.4162 26.8264 21.8765 26.3747C22.3368 25.9231 22.6014 25.3088 22.6136 24.6641H23.4339C23.4339 24.0777 23.2768 23.5021 22.9789 22.9971C22.681 22.4921 22.2531 22.0763 21.7399 21.7928H23.2449C23.8975 21.7924 24.5232 21.533 24.9847 21.0716C25.4461 20.6101 25.7055 19.9844 25.7058 19.3318C25.7058 19.0086 25.642 18.6885 25.5183 18.3899C25.3946 18.0913 25.2132 17.82 24.9846 17.5915C24.756 17.363 24.4846 17.1817 24.186 17.0581C23.8873 16.9344 23.5672 16.8708 23.244 16.8709H22.9391L23.9882 10.3478C24.2805 8.62488 24.9105 4.90306 25.0583 3.97731C25.1327 3.50962 25.2049 3.18106 25.4845 2.99687V3.3355H26.7151C26.8237 3.33515 26.9277 3.29191 27.0045 3.21521C27.0813 3.1385 27.1246 3.03454 27.1251 2.926V1.28537C27.1248 1.17668 27.0816 1.0725 27.0048 0.995605C26.928 0.918708 26.8238 0.875347 26.7151 0.875V0.875ZM5.38702 25.8947C5.06072 25.8944 4.7479 25.7646 4.51717 25.5339C4.28645 25.3032 4.15668 24.9904 4.15633 24.6641H6.61727C6.61692 24.9903 6.48721 25.303 6.25658 25.5338C6.02595 25.7645 5.71323 25.8943 5.38702 25.8947V25.8947ZM20.1526 25.8947C19.8263 25.8945 19.5133 25.7648 19.2825 25.5341C19.0517 25.3033 18.9219 24.9904 18.9215 24.6641H21.3833C21.3828 24.9903 21.2529 25.303 21.0222 25.5337C20.7916 25.7643 20.4789 25.8942 20.1526 25.8947V25.8947ZM19.1433 7.43487C19.1578 7.32368 19.2116 7.22137 19.2951 7.14654C19.3786 7.07171 19.4862 7.02934 19.5983 7.02713H22.1958C22.4215 7.02713 22.5786 7.20913 22.5431 7.43269L22.2859 9.0825C22.2518 9.30563 22.0378 9.48806 21.8116 9.48806H19.3341C19.2819 9.48944 19.2301 9.47951 19.1821 9.45894C19.1341 9.43837 19.0912 9.40766 19.0562 9.36891C19.0213 9.33016 18.9951 9.2843 18.9796 9.23448C18.964 9.18467 18.9594 9.13207 18.9661 9.08031L19.1433 7.43487V7.43487ZM18.7019 11.5364C18.7166 11.4254 18.7705 11.3232 18.854 11.2484C18.9374 11.1736 19.0449 11.1312 19.1569 11.1287H21.5557C21.7819 11.1287 21.9385 11.3107 21.9044 11.5343L21.7106 12.7741C21.676 12.9972 21.4625 13.1797 21.2363 13.1797H18.9364C18.8843 13.1809 18.8325 13.1709 18.7846 13.1503C18.7367 13.1296 18.6938 13.0989 18.6589 13.0602C18.6239 13.0215 18.5978 12.9757 18.5822 12.926C18.5666 12.8762 18.5619 12.8237 18.5685 12.7719L18.7019 11.5364V11.5364ZM3.00395 9.08994L2.58833 7.42525C2.53408 7.20563 2.67495 7.02713 2.90114 7.02713H5.98945C6.21608 7.02713 6.42039 7.21044 6.44445 7.43487L6.6212 9.08075C6.62776 9.13244 6.62309 9.18494 6.60751 9.23466C6.59193 9.28438 6.56581 9.33016 6.53092 9.36887C6.49604 9.40757 6.45321 9.43829 6.40537 9.45894C6.35753 9.47959 6.3058 9.48967 6.2537 9.4885H3.51452C3.28877 9.4885 3.05864 9.30869 3.00395 9.08994V9.08994ZM4.43502 13.1797C4.20927 13.1797 3.97914 13.0003 3.92489 12.7816L3.61164 11.5272C3.55695 11.3076 3.69695 11.1291 3.92314 11.1291H6.42958C6.65577 11.1291 6.86052 11.3124 6.88458 11.5369L7.01758 12.7724C7.02421 12.8241 7.01959 12.8766 7.00404 12.9264C6.98849 12.9761 6.96237 13.0219 6.92747 13.0606C6.89257 13.0994 6.84971 13.1301 6.80184 13.1507C6.75396 13.1713 6.70219 13.1814 6.65008 13.1801H4.43502V13.1797ZM7.04645 16.8713H5.35552C5.12845 16.8713 4.89964 16.6919 4.84495 16.4732L4.5317 15.2189C4.47745 14.9992 4.61745 14.8207 4.84408 14.8207H6.82595C7.05214 14.8207 7.25689 15.0041 7.28183 15.2285L7.41395 16.464C7.42059 16.5157 7.41598 16.5682 7.40042 16.6179C7.38487 16.6677 7.35874 16.7134 7.32383 16.7521C7.28892 16.7908 7.24606 16.8215 7.19818 16.8421C7.15031 16.8626 7.09855 16.8726 7.04645 16.8713V16.8713ZM12.0742 16.4609C12.0737 16.5698 12.0302 16.674 11.9532 16.7509C11.8761 16.8278 11.7718 16.8711 11.663 16.8713H9.52314C9.41112 16.869 9.30363 16.8266 9.22022 16.7518C9.13681 16.6769 9.08301 16.5747 9.06858 16.4636L8.93558 15.2281C8.9288 15.1764 8.9333 15.1238 8.94877 15.074C8.96424 15.0242 8.99032 14.9784 9.0252 14.9396C9.06008 14.9009 9.10294 14.8702 9.15084 14.8496C9.19873 14.829 9.25052 14.819 9.30264 14.8203H11.663C11.7719 14.8203 11.8763 14.8635 11.9534 14.9405C12.0305 15.0174 12.074 15.1218 12.0742 15.2307V16.4609V16.4609ZM12.0742 12.7697C12.0737 12.8786 12.0302 12.9828 11.9532 13.0597C11.8761 13.1366 11.7718 13.1799 11.663 13.1801H9.12633C8.90058 13.1801 8.6967 12.9968 8.67133 12.7724L8.5392 11.5369C8.5325 11.4852 8.53706 11.4327 8.55256 11.3829C8.56805 11.3332 8.59413 11.2873 8.629 11.2486C8.66387 11.2099 8.7067 11.1792 8.75456 11.1585C8.80241 11.1379 8.85417 11.1279 8.90627 11.1291H11.663C11.7719 11.1291 11.8763 11.1723 11.9534 11.2493C12.0305 11.3262 12.074 11.4306 12.0742 11.5395V12.7697V12.7697ZM12.0742 9.07812C12.0737 9.18697 12.0302 9.29122 11.9532 9.3681C11.8761 9.44499 11.7718 9.48827 11.663 9.4885H8.73083C8.61873 9.48629 8.51114 9.44392 8.42764 9.36909C8.34414 9.29426 8.29027 9.19194 8.27583 9.08075L8.09908 7.43487C8.09245 7.38317 8.09706 7.33064 8.11262 7.28089C8.12817 7.23113 8.15429 7.18533 8.18919 7.1466C8.22409 7.10788 8.26695 7.07716 8.31482 7.05654C8.3627 7.03591 8.41447 7.02588 8.46658 7.02713H11.6634C11.7723 7.02712 11.8768 7.07033 11.9539 7.14727C12.031 7.2242 12.0744 7.32858 12.0746 7.4375V9.07812H12.0742ZM16.5188 16.4636C16.5042 16.5747 16.4503 16.677 16.3669 16.7518C16.2834 16.8266 16.1758 16.869 16.0638 16.8713H14.13C14.0212 16.8711 13.9169 16.8278 13.8399 16.7509C13.763 16.674 13.7196 16.5697 13.7192 16.4609V15.2303C13.7194 15.1214 13.7628 15.0171 13.8398 14.9402C13.9168 14.8632 14.0212 14.82 14.13 14.8199H16.2843C16.51 14.8199 16.6763 15.0032 16.6518 15.2276L16.5188 16.4636ZM16.9151 12.7719C16.9006 12.8831 16.8467 12.9854 16.7632 13.0602C16.6798 13.135 16.5722 13.1774 16.4601 13.1797H14.13C14.0212 13.1795 13.9169 13.1362 13.8399 13.0593C13.763 12.9824 13.7196 12.8781 13.7192 12.7693V11.5386C13.7194 11.4298 13.7628 11.3255 13.8398 11.2485C13.9168 11.1716 14.0212 11.1284 14.13 11.1283H16.6806C16.9068 11.1283 17.0726 11.3116 17.0477 11.536L16.9151 12.7719ZM17.3115 9.08075C17.297 9.19191 17.2431 9.29417 17.1596 9.36898C17.0761 9.4438 16.9686 9.4862 16.8565 9.4885H14.13C14.0212 9.48827 13.9169 9.44497 13.8399 9.36808C13.763 9.29118 13.7196 9.18693 13.7192 9.07812V7.4375C13.7194 7.32866 13.7628 7.22435 13.8398 7.14742C13.9168 7.0705 14.0212 7.02724 14.13 7.02713H17.1212C17.3474 7.02713 17.5132 7.21044 17.4891 7.43487L17.3115 9.08075V9.08075ZM20.4755 16.8713V16.8682L20.472 16.8713H18.54C18.5273 16.8713 18.5164 16.8652 18.5037 16.8634C18.5015 16.8486 18.5015 16.8337 18.4989 16.8179L18.4796 16.8582C18.485 16.8596 18.4904 16.8608 18.4958 16.8617C18.2941 16.8385 18.1498 16.6718 18.173 16.4636L18.3051 15.2281C18.3198 15.117 18.3737 15.0148 18.4572 14.94C18.5406 14.8653 18.6481 14.8228 18.7601 14.8203H20.9808C21.207 14.8203 21.3628 15.0023 21.3286 15.2259L21.1348 16.4658C21.1011 16.6889 20.8876 16.8713 20.6615 16.8713H20.4755" fill="#5EBBFF"/>
</svg>
